# xmcd
#
# Track frame offsets: 
#        150
#        25937
#        51346
#        69406
#        92393
#        114215
#        127826
#        175650
#        207672
#        235819
#        258445
#        290256
#
# Disc length: 4261 seconds
#
# Revision: 0
# Processed by: cddbd v1.5.2PL0 Copyright (c) Steve Scherf et al.
# Submitted via: ExactAudioCopyFreeDBPlugin 1.0
#
DISCID=9d10a30c
DTITLE=Various Artist - Rough Trade Shops - Africa 13
DYEAR=1900
DGENRE=
TTITLE0=Hailu Mergia - Hari Meru Meru
TTITLE1=Mdou Moctar - Tahoultine
TTITLE2=Owiny Sigoma Band - Norbat Okelo
TTITLE3=Janka Nabay - Eh Congo
TTITLE4=Tshetsha Boys ft Themba Manganyi - Bafana Bafana
TTITLE5=Amanaz - History of Man
TTITLE6=Shackleton vs Kasai Allstars - Mukuba Special
TTITLE7=Mark Ernestus presents Jeri-Jeri (with Ale and Khadim Mboup) - C
TTITLE7=asamance
TTITLE8=Bolia We Ndenge - Bosamba Ndeke
TTITLE9=Masanka Sankayi - Le Laboureur
TTITLE10=Konono Nr. 1 - Paradiso
TTITLE11=Zinja Hlungwani - N'wagezani My Love
EXTD=
EXTT0=
EXTT1=
EXTT2=
EXTT3=
EXTT4=
EXTT5=
EXTT6=
EXTT7=
EXTT8=
EXTT9=
EXTT10=
EXTT11=
PLAYORDER=
